<svg width="1452" height="339" viewBox="0 0 1452 339" fill="none" xmlns="http://www.w3.org/2000/svg">
    <path
        d="M6 189.498L19.3 167.036C32.7 144.573 59 99.6484 86 122.111C112.7 144.573 139 234.423 166 264.326C192.7 294.79 219 263.905 246 226.982C272.7 189.498 299 144.573 326 129.551C352.7 115.091 379 129.13 406 107.089C432.7 84.2055 459 25.2417 486 9.79886C512.7 -5.64403 539 25.2417 566 47.283C592.7 70.1665 619 84.2055 646 129.551C672.7 174.055 699 249.866 726 219.401C752.7 189.498 779 54.7236 806 54.7236C832.7 54.7236 859 189.498 886 264.326C912.7 339.715 939 353.754 966 301.81C992.7 249.866 1019 129.13 1046 122.111C1072.7 115.091 1099 218.98 1126 241.863C1152.7 263.905 1179 204.941 1206 174.476C1232.7 144.573 1259 144.573 1286 159.595C1312.7 174.055 1339 204.941 1366 226.982C1392.7 249.866 1419 263.905 1433 271.907L1446 279.347"
        stroke="#226F58" stroke-opacity="0.1" stroke-width="11" stroke-linecap="round" />
</svg>